# File created by Blade
# Date/Time:  Wed Apr 08 17:35:20 2015
#---------------------------------------------------------
:version 1.10
:name HOM
:units
  mass 1.0
  length 1.000000
  angle deg
:documentation
     Acclaim Skeleton File
:root
   axis xyz
   order TX TY TZ RX RY RZ
   position 0.000000 0.000000 0.000000
   orientation 0 0 0
:bonedata
   begin
      id 1
      name Spine_dum
      direction 0.000000 1.000000 0.000000
      length 5.893853
      axis 0.0 0.0 0.0 xyz
   end
   begin
      id 2
      name LeftUpLeg_dum
      direction 1.000000 0.000000 0.000000
      length 3.697939
      axis 0.0 0.0 0.0 xyz
   end
   begin
      id 3
      name RightUpLeg_dum
      direction -1.000000 0.000000 0.000000
      length 3.697939
      axis 0.0 0.0 0.0 xyz
   end
   begin
      id 4
      name Spine
      direction 0.000000 1.000000 0.000000
      length 0.000000
      axis 0.0 0.0 0.0 xyz
      dof rx ry rz
   end
   begin
      id 5
      name Spine_dum1
      direction 0.000000 1.000000 0.000000
      length 16.447146
      axis 0.0 0.0 0.0 xyz
   end
   begin
      id 6
      name Spine_dum2
      direction 0.000000 1.000000 0.000000
      length 10.900383
      axis 0.0 0.0 0.0 xyz
   end
   begin
      id 7
      name Spine_dum3
      direction 0.000000 1.000000 0.000000
      length 10.900383
      axis 0.0 0.0 0.0 xyz
   end
   begin
      id 8
      name Head
      direction 0.000000 1.000000 0.000000
      length 4.527550
      axis 0.0 0.0 0.0 xyz
      dof rx ry rz
   end
   begin
      id 9
      name LeftShoulder
      direction 1.000000 0.000000 0.000000
      length 8.219464
      axis 0.0 0.0 -90.0 xyz
      dof rx ry rz
   end
   begin
      id 10
      name LeftArm
      direction 1.000000 0.000000 0.000000
      length 11.094937
      axis 0.0 0.0 -90.0 xyz
      dof rx ry rz
   end
   begin
      id 11
      name LeftForeArm
      direction 1.000000 0.000000 0.000000
      length 9.103875
      axis 0.0 0.0 -90.0 xyz
      dof ry rz rx
   end
   begin
      id 12
      name LeftHand
      direction 0.000000 0.000000 0.000000
      length 0.000000
      axis 0.0 0.0 -90.0 xyz
      dof rx ry rz
   end
   begin
      id 13
      name LeftHand_dum1
      direction 0.000000 0.000000 0.000000
      length 0.000000
      axis 0.0 0.0 -90.0 xyz
   end
   begin
      id 14
      name LeftHand_dum2
      direction 1.000000 0.000000 0.000000
      length 3.937000
      axis 0.0 0.0 -90.0 xyz
   end
   begin
      id 15
      name LeftHandThumb1
      direction 0.000000 0.000000 1.000000
      length 3.937000
      axis 0.0 0.0 -90.0 xyz
      dof rx rz ry
   end
   begin
      id 16
      name RightShoulder
      direction -1.000000 0.000000 0.000000
      length 8.219464
      axis 0.0 0.0 90.0 xyz
      dof rx ry rz
   end
   begin
      id 17
      name RightArm
      direction -1.000000 0.000000 0.000000
      length 11.094937
      axis 0.0 0.0 90.0 xyz
      dof rx ry rz
   end
   begin
      id 18
      name RightForeArm
      direction -1.000000 0.000000 0.000000
      length 9.103875
      axis 0.0 0.0 90.0 xyz
      dof ry rz rx
   end
   begin
      id 19
      name RightHand
      direction 0.000000 0.000000 0.000000
      length 0.000000
      axis 0.0 0.0 90.0 xyz
      dof rx ry rz
   end
   begin
      id 20
      name RightHand_dum1
      direction 0.000000 0.000000 0.000000
      length 0.000000
      axis 0.0 0.0 90.0 xyz
   end
   begin
      id 21
      name RightHand_dum2
      direction -1.000000 0.000000 0.000000
      length 3.937000
      axis 0.0 0.0 90.0 xyz
   end
   begin
      id 22
      name RightHandThumb1
      direction 0.000000 0.000000 1.000000
      length 3.937000
      axis 0.0 0.0 90.0 xyz
      dof rx rz ry
   end
   begin
      id 23
      name LeftUpLeg
      direction 0.000000 -1.000000 0.000000
      length 16.181467
      axis 0.0 0.0 0.0 xyz
      dof rx ry rz
   end
   begin
      id 24
      name LeftLeg
      direction 0.000000 -1.000000 0.000000
      length 16.501392
      axis 0.0 0.0 0.0 xyz
      dof rx ry rz
   end
   begin
      id 25
      name LeftFoot
      direction 0.000000 -0.258819 0.965926
      length 6.408245
      axis 15.0 0.0 0.0 xyz
      dof rx ry rz
   end
   begin
      id 26
      name LeftToeBase
      direction 0.000000 0.000000 1.000000
      length 2.952750
      axis 0.0 0.0 0.0 xyz
      dof rx ry rz
   end
   begin
      id 27
      name RightUpLeg
      direction 0.000000 -1.000000 0.000000
      length 16.181467
      axis 0.0 0.0 0.0 xyz
      dof rx ry rz
   end
   begin
      id 28
      name RightLeg
      direction 0.000000 -1.000000 0.000000
      length 16.501392
      axis 0.0 0.0 0.0 xyz
      dof rx ry rz
   end
   begin
      id 29
      name RightFoot
      direction 0.000000 -0.258819 0.965926
      length 6.408245
      axis 15.0 0.0 0.0 xyz
      dof rx ry rz
   end
   begin
      id 30
      name RightToeBase
      direction 0.000000 0.000000 1.000000
      length 2.952750
      axis 0.0 0.0 0.0 xyz
      dof rx ry rz
   end
:hierarchy
   begin
      root Spine_dum LeftUpLeg_dum RightUpLeg_dum
      Spine_dum Spine
      LeftUpLeg_dum LeftUpLeg
      RightUpLeg_dum RightUpLeg
      Spine Spine_dum1 Spine_dum2 Spine_dum3
      Spine_dum1 Head
      Spine_dum2 LeftShoulder
      Spine_dum3 RightShoulder
      LeftShoulder LeftArm
      LeftArm LeftForeArm
      LeftForeArm LeftHand
      LeftHand LeftHand_dum1 LeftHand_dum2
      LeftHand_dum1 LeftHandThumb1
      RightShoulder RightArm
      RightArm RightForeArm
      RightForeArm RightHand
      RightHand RightHand_dum1 RightHand_dum2
      RightHand_dum1 RightHandThumb1
      LeftUpLeg LeftLeg
      LeftLeg LeftFoot
      LeftFoot LeftToeBase
      RightUpLeg RightLeg
      RightLeg RightFoot
      RightFoot RightToeBase
   end

# File created by Blade
# Date/Time:  Wed Apr 08 17:35:25 2015
# Frame Rate: 120.000 fps
#------------------------------------------------------
:FULLY-SPECIFIED
:DEGREES
173
root 8.076457 36.529592 2.420520 40.439609 -73.233703 -17.912033
Spine -21.314497 -6.589882 6.373219
Head 11.695548 13.889463 4.618269
LeftShoulder -9.772280 24.609901 13.511999
LeftArm 17.541917 13.203218 -81.975758
LeftForeArm 22.590241 -0.000000 27.204660
LeftHand -10.195773 0.000000 -14.275565
LeftHandThumb1 -26.253704 0.000000 33.147579
RightShoulder -40.283857 -52.232453 15.827365
RightArm 49.861811 -9.408387 59.714830
RightForeArm 2.298619 -0.000000 39.787067
RightHand -1.042718 -0.000000 8.891157
RightHandThumb1 -24.326973 -0.000000 -32.862282
LeftUpLeg -30.066511 5.190485 -2.523612
LeftLeg 16.595306 -0.000000 -0.000000
LeftFoot -11.261925 8.805095 -2.950557
LeftToeBase 2.157579 -0.000000 -0.000000
RightUpLeg -93.015419 -12.606272 4.995652
RightLeg 112.847554 -0.000000 -0.000000
RightFoot -11.282472 2.793797 20.099121
RightToeBase -10.776941 -0.000000 0.000000
174
root 8.073512 36.544413 2.418295 41.131346 -72.899107 -18.424979
Spine -21.605015 -6.677571 6.742208
Head 11.802118 13.960028 4.666833
LeftShoulder -9.787339 24.696589 13.429057
LeftArm 17.629385 13.518743 -81.881555
LeftForeArm 22.330362 -0.000000 27.057766
LeftHand -10.253545 0.000000 -14.460984
LeftHandThumb1 -26.253704 0.000000 33.147579
RightShoulder -40.336813 -52.297088 15.949788
RightArm 49.927652 -9.786829 59.527029
RightForeArm 2.427878 0.000000 39.570399
RightHand -0.972571 0.000000 9.199669
RightHandThumb1 -24.326973 -0.000000 -32.862282
LeftUpLeg -30.376361 5.108021 -2.232117
LeftLeg 16.754859 -0.000000 -0.000000
LeftFoot -11.243188 8.697875 -2.907910
LeftToeBase 2.167996 -0.000000 -0.000000
RightUpLeg -94.508355 -12.449638 5.746936
RightLeg 113.848019 -0.000000 -0.000000
RightFoot -11.247119 3.031105 20.152115
RightToeBase -10.805320 -0.000000 0.000000
175
root 8.071791 36.558406 2.418105 41.754547 -72.576000 -18.848836
Spine -21.912856 -6.757858 7.082577
Head 11.860028 14.047165 4.742052
LeftShoulder -9.825147 24.776492 13.353446
LeftArm 17.745152 13.928116 -81.751196
LeftForeArm 22.202077 -0.000000 26.897840
LeftHand -10.309186 -0.000000 -14.550405
LeftHandThumb1 -26.253704 0.000000 33.147579
RightShoulder -40.384493 -52.343624 16.056656
RightArm 49.974351 -10.156069 59.359315
RightForeArm 2.555778 -0.000000 39.356978
RightHand -0.863378 -0.000000 9.428295
RightHandThumb1 -24.326973 -0.000000 -32.862282
LeftUpLeg -30.710070 5.034446 -1.973886
LeftLeg 16.918052 -0.000000 -0.000000
LeftFoot -11.227133 8.569819 -2.934492
LeftToeBase 2.279646 -0.000000 -0.000000
RightUpLeg -95.981843 -12.242248 6.445738
RightLeg 114.804774 -0.000000 -0.000000
RightFoot -11.231375 3.344955 20.158835
RightToeBase -10.841483 -0.000000 0.000000
176
root 8.075406 36.579668 2.405243 42.749366 -72.106664 -19.463804
Spine -22.455772 -6.872930 7.619218
Head 11.966738 14.124694 4.766543
LeftShoulder -9.854193 24.843219 13.294603
LeftArm 17.806099 14.434153 -81.624128
LeftForeArm 22.272478 0.000000 26.747440
LeftHand -10.256548 -0.000000 -14.513625
LeftHandThumb1 -26.253704 0.000000 33.147579
RightShoulder -40.441387 -52.440813 16.147484
RightArm 50.025431 -10.500185 59.204538
RightForeArm 2.640349 -0.000000 39.173617
RightHand -0.866641 -0.000000 9.582731
RightHandThumb1 -24.326973 -0.000000 -32.862282
LeftUpLeg -31.303488 4.980493 -1.610639
LeftLeg 17.148232 -0.000000 -0.000000
LeftFoot -11.208435 8.353166 -3.107836
LeftToeBase 2.590776 -0.000000 -0.000000
RightUpLeg -97.595379 -12.021351 7.356499
RightLeg 115.666753 -0.000000 -0.000000
RightFoot -11.255723 3.642447 20.160178
RightToeBase -10.808721 -0.000000 0.000000
177
root 8.076541 36.600448 2.397604 43.613899 -71.684754 -19.973322
Spine -22.977472 -6.934633 8.092281
Head 12.089055 14.191122 4.806053
LeftShoulder -9.863245 24.914827 13.241982
LeftArm 17.921899 14.945146 -81.471267
LeftForeArm 21.953899 -0.000000 26.582724
LeftHand -10.362253 0.000000 -14.580730
LeftHandThumb1 -26.253704 0.000000 33.147579
RightShoulder -40.534735 -52.543465 16.261223
RightArm 50.083558 -10.841259 59.040285
RightForeArm 2.687646 -0.000000 38.980379
RightHand -0.892044 -0.000000 9.734198
RightHandThumb1 -24.326973 -0.000000 -32.862282
LeftUpLeg -31.856509 5.011753 -1.329850
LeftLeg 17.357003 -0.000000 -0.000000
LeftFoot -11.141692 8.124836 -3.190104
LeftToeBase 3.149624 -0.000000 -0.000000
RightUpLeg -99.155639 -11.792456 8.200931
RightLeg 116.498909 -0.000000 -0.000000
RightFoot -11.232473 4.043251 20.206529
RightToeBase -10.925626 -0.000000 0.000000
178
root 8.074310 36.621676 2.389515 44.442241 -71.269626 -20.479027
Spine -23.467055 -6.946678 8.530171
Head 12.218903 14.218737 4.853222
LeftShoulder -9.815614 24.968431 13.222782
LeftArm 18.012754 15.420126 -81.321785
LeftForeArm 22.100308 -0.000000 26.457546
LeftHand -10.301163 -0.000000 -14.679177
LeftHandThumb1 -26.253704 0.000000 33.147579
RightShoulder -40.668803 -52.637154 16.423713
RightArm 50.130188 -11.168270 58.889401
RightForeArm 2.714496 0.000000 38.766335
RightHand -0.787235 -0.000000 9.830715
RightHandThumb1 -24.326973 -0.000000 -32.862282
LeftUpLeg -32.362859 5.138015 -1.076779
LeftLeg 17.540128 -0.000000 -0.000000
LeftFoot -11.076653 7.819952 -3.187996
LeftToeBase 4.250379 -0.000000 -0.000000
RightUpLeg -100.642004 -11.520919 9.029864
RightLeg 117.290658 -0.000000 -0.000000
RightFoot -11.219883 4.420723 20.216179
RightToeBase -10.981134 -0.000000 0.000000
